<svg width="18" height="15" viewBox="0 0 18 15" fill="none" xmlns="http://www.w3.org/2000/svg">
<path fill-rule="evenodd" clip-rule="evenodd" d="M16.5681 1.7221C16.5681 1.95337 16.4762 2.17516 16.3127 2.33869C16.1491 2.50223 15.9273 2.5941 15.6961 2.5941H1.74407C1.5128 2.5941 1.291 2.50223 1.12747 2.33869C0.963941 2.17516 0.87207 1.95337 0.87207 1.7221C0.87207 1.49083 0.963941 1.26903 1.12747 1.1055C1.291 0.941969 1.5128 0.850098 1.74407 0.850098H15.6961C15.9273 0.850098 16.1491 0.941969 16.3127 1.1055C16.4762 1.26903 16.5681 1.49083 16.5681 1.7221ZM16.5681 6.9541C16.5681 7.18537 16.4762 7.40716 16.3127 7.57069C16.1491 7.73423 15.9273 7.8261 15.6961 7.8261H1.74407C1.5128 7.8261 1.291 7.73423 1.12747 7.57069C0.963941 7.40716 0.87207 7.18537 0.87207 6.9541C0.87207 6.72283 0.963941 6.50103 1.12747 6.3375C1.291 6.17397 1.5128 6.0821 1.74407 6.0821H15.6961C15.9273 6.0821 16.1491 6.17397 16.3127 6.3375C16.4762 6.50103 16.5681 6.72283 16.5681 6.9541ZM15.6961 13.0581C15.9273 13.0581 16.1491 12.9662 16.3127 12.8027C16.4762 12.6392 16.5681 12.4174 16.5681 12.1861C16.5681 11.9548 16.4762 11.733 16.3127 11.5695C16.1491 11.406 15.9273 11.3141 15.6961 11.3141H1.74407C1.5128 11.3141 1.291 11.406 1.12747 11.5695C0.963941 11.733 0.87207 11.9548 0.87207 12.1861C0.87207 12.4174 0.963941 12.6392 1.12747 12.8027C1.291 12.9662 1.5128 13.0581 1.74407 13.0581H15.6961Z" fill="black"/>
</svg>
